<?xml version="1.0" encoding="UTF-8"?>
<!DOCTYPE svg PUBLIC "-//W3C//DTD SVG 1.1//EN" "http://www.w3.org/Graphics/SVG/1.1/DTD/svg11.dtd">
<!-- Creator: CorelDRAW X7 -->
<svg xmlns="http://www.w3.org/2000/svg" xml:space="preserve" width="440px" height="334px" version="1.1" style="shape-rendering:geometricPrecision; text-rendering:geometricPrecision; image-rendering:optimizeQuality; fill-rule:evenodd; clip-rule:evenodd"
viewBox="0 0 440 334"
 xmlns:xlink="http://www.w3.org/1999/xlink">
 <defs>
  <style type="text/css">
   <![CDATA[
    .str2 {stroke:#1C642E;stroke-width:0.999216}
    .str3 {stroke:#293B78;stroke-width:0.999216}
    .str0 {stroke:#466DB3;stroke-width:2.08347}
    .str4 {stroke:#1C642E;stroke-width:0.900003}
    .str6 {stroke:#2D4190;stroke-width:0.900003}
    .str5 {stroke:white;stroke-width:1.99961;stroke-dasharray:1.999613 1.999613}
    .str1 {stroke:#2D4190;stroke-width:0.999216}
    .fil6 {fill:none}
    .fil0 {fill:#FEFEFE}
    .fil5 {fill:#8B97CB}
    .fil4 {fill:#84C494}
    .fil3 {fill:#466DB3}
    .fil7 {fill:#186B93}
    .fil1 {fill:white}
    .fil2 {fill:#2D4190;fill-rule:nonzero}
   ]]>
  </style>
 </defs>
 <g id="Слой_x0020_1">
  <metadata id="CorelCorpID_0Corel-Layer"/>
  <g id="_169266392">
   <g>
    <rect class="fil0 str0" x="46" y="85" width="174" height="111" rx="2" ry="2"/>
    <g>
     <path class="fil1" d="M66 148l11 0c2,0 4,2 4,4l0 20c0,2 -2,4 -4,4l-11 0c-2,0 -4,-2 -4,-4l0 -20c0,-2 2,-4 4,-4z"/>
     <path id="1" class="fil2" d="M77 149l-11 0 0 -1 11 0 0 0 0 1zm5 3l-1 0 0 0 0 0 0 0 0 0 0 0 0 -1 -1 0 0 0 0 0 0 0 0 0 0 0 0 -1 0 0 0 0 0 0 0 0 0 0 -1 0 0 0 0 0 0 -1 0 0 0 0 0 0 -1 0 0 0 0 0 0 0 0 0 0 0 0 0 -1 0 0 -1 1 0 0 0 0 0 0 0 0 0 1 0 0 0 0 0 0 0 0 0 1 1 0 0 0 0 0 0 0 0 0 0 1 0 0 1 0 0 0 0 0 0 0 0 0 0 0 1 0 0 0 0 0 0 1 0 0 1 0 0 0 0 0 0 0 0zm-1 20l0 -20 1 0 0 20 0 0 -1 0zm-4 4l0 -1 0 0 1 0 0 0 0 0 0 0 0 0 0 0 0 0 1 0 0 0 0 0 0 0 0 0 0 0 0 0 1 -1 0 0 0 0 0 0 0 0 0 0 0 0 0 0 0 -1 0 0 0 0 0 0 1 0 0 0 0 0 0 -1 0 0 0 0 1 0 0 0 0 1 0 0 0 0 -1 0 0 0 0 1 0 0 0 0 0 0 0 0 0 0 0 1 0 0 0 0 -1 0 0 0 0 0 0 0 0 1 0 0 -1 0 0 0 0 0 0 0 0 0 -1 0 0 0 0 0 0 0 0 0 -1 0 0 0zm-11 -1l11 0 0 1 -11 0 0 0 0 -1zm-4 -3l1 0 0 0 0 0 0 0 0 1 0 0 0 0 0 0 0 0 0 0 0 0 0 1 0 0 0 0 0 0 1 0 0 0 0 0 0 0 0 1 0 0 0 0 0 0 1 0 0 0 0 0 0 0 0 0 0 0 0 0 1 0 0 0 0 0 0 0 0 1 0 0 0 0 -1 0 0 0 0 0 0 0 0 0 -1 0 0 0 0 0 0 0 0 0 0 -1 -1 0 0 0 0 0 0 0 0 0 0 0 0 -1 -1 0 0 0 0 0 0 0 0 0 0 -1 0 0 0 0 0 0 0 0 0 -1 0 0 0 0zm1 -20l0 20 -1 0 0 -20 0 0 1 0zm3 -4l0 1 0 0 0 0 0 0 0 0 -1 0 0 0 0 0 0 0 0 0 0 0 0 0 -1 0 0 1 0 0 0 0 0 0 0 0 0 0 0 0 -1 0 0 0 0 1 0 0 0 0 0 0 0 0 0 0 0 0 0 1 0 0 0 0 0 0 0 0 -1 0 0 0 0 0 0 0 0 -1 0 0 0 0 0 0 0 0 0 -1 0 0 0 0 1 0 0 0 0 0 0 -1 0 0 0 0 0 0 1 0 0 0 0 0 0 -1 0 0 0 0 1 0 0 0 0 0 0 0 0 0 1 0 0 0 0 0 0 0z"/>
    </g>
    <g>
     <path class="fil1" d="M105 148l11 0c2,0 4,2 4,4l0 20c0,2 -2,4 -4,4l-11 0c-2,0 -4,-2 -4,-4l0 -20c0,-2 2,-4 4,-4z"/>
     <path id="1" class="fil2" d="M116 149l-11 0 0 -1 11 0 0 0 0 1zm4 3l-1 0 0 0 0 0 0 0 0 0 0 0 0 -1 0 0 0 0 0 0 0 0 0 0 0 0 0 -1 0 0 0 0 -1 0 0 0 0 0 0 0 0 0 0 0 0 -1 0 0 -1 0 0 0 0 0 0 0 0 0 0 0 -1 0 0 0 0 0 0 0 0 -1 0 0 0 0 1 0 0 0 0 0 0 0 0 0 1 0 0 0 0 0 0 1 0 0 1 0 0 0 0 0 0 0 0 0 0 1 0 0 1 0 0 0 0 0 0 0 0 1 0 0 0 0 0 0 0 0 0 1 0 0 0 0 0 0 0 0zm-1 20l0 -20 1 0 0 20 0 0 -1 0zm-3 4l0 -1 0 0 0 0 0 0 0 0 1 0 0 0 0 0 0 0 0 0 0 0 1 0 0 0 0 0 0 0 0 0 0 -1 0 0 0 0 1 0 0 0 0 0 0 0 0 0 0 -1 0 0 0 0 0 0 0 0 0 0 0 0 0 -1 0 0 0 0 1 0 0 0 0 1 0 0 0 0 0 0 0 0 0 1 0 0 0 0 0 0 0 0 0 0 -1 1 0 0 0 0 0 0 0 0 0 0 0 0 -1 1 0 0 0 0 0 0 0 0 -1 0 0 0 0 0 0 0 0 0 -1 0 0 0 0 0 0 0zm-11 -1l11 0 0 1 -11 0 0 0 0 -1zm-5 -3l1 0 0 0 0 0 0 0 0 1 1 0 0 0 0 0 0 0 0 0 0 0 0 1 0 0 0 0 0 0 0 0 0 0 0 0 1 0 0 1 0 0 0 0 0 0 0 0 0 0 0 0 1 0 0 0 0 0 0 0 0 0 0 0 1 0 0 0 0 1 0 0 -1 0 0 0 0 0 0 0 -1 0 0 0 0 0 0 0 0 0 0 0 -1 0 0 -1 0 0 0 0 0 0 0 0 -1 0 0 0 0 -1 0 0 0 0 0 0 0 0 0 0 0 -1 0 0 0 0 0 0 -1 0 0 -1 0 0 0 0zm1 -20l0 20 -1 0 0 -20 0 0 1 0zm4 -4l0 1 0 0 0 0 -1 0 0 0 0 0 0 0 0 0 0 0 -1 0 0 0 0 0 0 0 0 1 0 0 0 0 0 0 -1 0 0 0 0 0 0 0 0 0 0 1 0 0 0 0 0 0 0 0 0 0 0 0 0 1 -1 0 0 0 0 0 0 0 -1 0 0 0 0 0 1 0 0 -1 0 0 0 0 0 0 0 0 0 -1 0 0 0 0 0 0 0 0 0 0 1 -1 0 0 0 0 0 0 0 0 0 0 1 0 0 -1 0 0 0 0 0 0 0 0 1 0 0 0 0 0 0 0 1 0 0 0 0 0z"/>
    </g>
    <g>
     <path class="fil1" d="M97 126l0 -12c0,-2 1,-3 3,-3l20 0c2,0 4,1 4,3l0 12c0,2 -2,3 -4,3l-20 0c-2,0 -3,-1 -3,-3z"/>
     <path id="1" class="fil2" d="M97 114l0 12 -1 0 0 -12 0 0 1 0zm3 -4l0 1 0 0 0 0 0 0 0 0 0 0 0 0 -1 0 0 0 0 0 0 1 0 0 0 0 0 0 -1 0 0 0 0 0 0 0 0 0 0 0 0 1 0 0 0 0 0 0 -1 0 0 0 0 0 0 0 0 1 0 0 0 0 0 0 0 0 0 0 -1 0 0 0 0 0 0 0 0 0 0 -1 0 0 0 0 1 0 0 0 0 -1 0 0 0 0 0 0 0 0 0 0 0 -1 1 0 0 0 0 0 0 0 0 0 0 0 1 0 0 0 0 -1 0 0 0 0 1 0 0 0 0 0 0 0 0 0 0 0zm20 1l-20 0 0 -1 20 0 0 0 0 1zm5 3l-1 0 0 0 0 0 0 0 0 0 -1 0 0 0 0 -1 0 0 0 0 0 0 0 0 0 0 0 0 0 0 0 -1 0 0 0 0 -1 0 0 0 0 0 0 0 0 0 0 0 0 0 0 -1 -1 0 0 0 0 0 0 0 0 0 0 0 -1 0 0 0 0 -1 1 0 0 0 0 0 0 0 0 0 1 0 0 0 0 1 0 0 0 0 0 0 1 0 0 0 0 0 0 0 0 0 0 1 1 0 0 0 0 0 0 0 0 0 0 1 0 0 0 0 0 0 0 0 0 1 0 0 1 0 0 0 0 0 0 0zm-1 12l0 -12 1 0 0 12 0 0 -1 0zm-4 4l0 -1 0 0 0 0 1 0 0 0 0 0 0 0 0 0 0 0 1 0 0 0 0 0 0 0 0 -1 0 0 0 0 0 0 1 0 0 0 0 0 0 0 0 0 0 -1 0 0 0 0 0 0 0 0 0 0 0 0 0 -1 1 0 0 0 0 0 0 0 1 0 0 0 0 0 -1 0 0 1 0 0 0 0 0 0 0 0 0 1 0 0 0 0 0 0 0 0 0 0 -1 1 0 0 0 0 0 0 0 0 0 0 -1 0 0 0 0 1 0 0 0 0 0 0 -1 0 0 0 0 0 0 0 0 0 -1 0 0 0zm-20 -1l20 0 0 1 -20 0 0 0 0 -1zm-4 -3l1 0 0 0 0 0 0 0 0 0 0 0 0 1 0 0 0 0 0 0 0 0 1 0 0 0 0 1 0 0 0 0 0 0 0 0 0 0 0 0 0 0 1 0 0 1 0 0 0 0 0 0 0 0 0 0 1 0 0 0 0 0 0 0 0 0 0 0 0 1 0 0 0 0 0 0 0 0 -1 0 0 0 0 0 0 0 0 0 -1 -1 0 0 0 0 0 0 0 0 0 0 -1 0 0 0 0 -1 0 0 0 0 0 0 0 0 0 0 0 -1 -1 0 0 0 0 0 0 0 0 -1 0 0 0 0 0 0 0 0z"/>
    </g>
    <g>
     <path class="fil1" d="M174 168l0 -11c0,-2 2,-4 4,-4l20 0c2,0 4,2 4,4l0 11c0,2 -2,4 -4,4l-20 0c-2,0 -4,-2 -4,-4z"/>
     <path id="1" class="fil2" d="M175 157l0 11 -1 0 0 -11 0 0 1 0zm3 -4l0 1 0 0 0 0 0 0 -1 0 0 0 0 0 0 0 0 0 0 0 0 0 -1 0 0 0 0 0 0 0 0 1 0 0 0 0 0 0 -1 0 0 0 0 0 0 0 0 0 0 1 0 0 0 0 0 0 0 0 0 0 0 1 0 0 0 0 0 0 -1 0 0 0 0 0 0 -1 0 0 0 0 0 0 0 0 0 -1 0 0 0 0 0 0 0 0 1 -1 0 0 0 0 0 0 0 0 0 0 0 0 1 0 0 -1 0 0 0 0 0 0 0 0 1 0 0 0 0 0 0 0 1 0 0 0 0 0 0 0zm20 1l-20 0 0 -1 20 0 0 0 0 1zm4 3l-1 0 0 0 0 0 0 0 0 0 0 -1 0 0 0 0 0 0 0 0 0 0 0 -1 0 0 0 0 -1 0 0 0 0 0 0 0 0 0 0 0 0 -1 0 0 -1 0 0 0 0 0 0 0 0 0 0 0 0 0 -1 0 0 0 0 0 0 0 0 0 0 -1 0 0 0 0 0 0 1 0 0 0 0 0 0 0 0 0 1 0 0 0 0 0 0 1 0 0 1 0 0 0 0 0 0 0 0 0 0 0 0 1 0 0 1 0 0 0 0 0 0 1 0 0 0 0 0 0 0 0 0 1 0 0 0 0 0 0zm-1 11l0 -11 1 0 0 11 0 0 -1 0zm-3 5l0 -1 0 0 0 0 0 0 0 0 0 0 1 -1 0 0 0 0 0 0 0 0 0 0 0 0 1 0 0 0 0 0 0 0 0 0 0 0 0 -1 0 0 1 0 0 0 0 0 0 0 0 0 0 -1 0 0 0 0 0 0 0 0 0 0 0 -1 0 0 1 0 0 1 0 0 0 0 0 0 0 0 0 1 0 0 0 0 0 0 0 0 -1 1 0 0 0 0 0 0 0 0 0 0 0 0 0 1 -1 0 0 0 0 0 0 0 0 0 -1 0 0 0 0 0 0 0 0 0 -1 1 0 0 0 0 0 0 0 0zm-20 -1l20 0 0 1 -20 0 0 0 0 -1zm-4 -4l1 0 0 0 0 0 0 1 0 0 0 0 0 0 0 0 0 0 0 1 0 0 0 0 0 0 0 0 0 0 0 0 1 1 0 0 0 0 0 0 0 0 0 0 0 0 0 0 1 0 0 0 0 0 0 0 0 0 0 1 0 0 1 0 0 0 0 0 0 1 0 0 0 0 -1 0 0 -1 0 0 0 0 -1 0 0 0 0 0 0 0 0 0 0 0 -1 0 0 0 0 -1 0 0 0 0 0 0 0 0 -1 0 0 0 0 -1 0 0 0 0 0 0 0 0 0 -1 0 0 0 0 0 0 0 0 0 -1 0 0z"/>
    </g>
    <circle class="fil1 str1" cx="147" cy="162" r="9"/>
    <g>
     <path class="fil2" d="M149 120l0 33 -4 0 0 -33 2 -2 2 2zm-2 -2l2 0 0 2 -2 -2zm-16 0l16 0 0 4 -16 0 0 -4zm-7 2l7 -3 0 7 -7 -4z"/>
    </g>
    <g>
     <path class="fil2" d="M108 142l0 -13 4 0 0 13 -4 0zm2 6l-3 -7 7 0 -4 7z"/>
    </g>
    <g>
     <path class="fil2" d="M94 164l-13 0 0 -4 13 0 0 4zm0 -6l7 4 -7 4 0 -8z"/>
    </g>
    <g>
     <path class="fil2" d="M131 164l-11 0 0 -4 11 0 0 4zm-1 -6l7 4 -7 4 0 -8z"/>
    </g>
    <g>
     <path class="fil2" d="M168 165l-11 0 0 -4 11 0 0 4zm-1 -6l7 4 -7 4 0 -8z"/>
    </g>
    <rect class="fil3" x="46" y="85" width="174.001" height="13.8981" rx="2" ry="0"/>
    <g>
     <circle class="fil0" cx="212" cy="92" r="3"/>
     <circle class="fil0" cx="201" cy="92" r="3"/>
     <circle class="fil0" cx="190" cy="92" r="3"/>
    </g>
    <rect class="fil0 str0" x="142" y="48" width="174" height="111" rx="2" ry="2"/>
    <rect class="fil3" x="142" y="48" width="174.001" height="13.8981" rx="2" ry="0"/>
    <g>
     <circle class="fil0" cx="308" cy="55" r="3"/>
     <circle class="fil0" cx="297" cy="55" r="3"/>
     <circle class="fil0" cx="286" cy="55" r="3"/>
    </g>
    <path class="fil4 str2" d="M313 156c0,3 1,3 -2,3l-164 0c-2,0 -5,-3 -5,-5l0 -36c0,0 0,-36 17,-36 17,-1 18,27 34,27 17,0 19,-27 36,-27 17,0 22,27 42,27 15,0 20,-27 36,-27 8,0 9,6 9,16 2,16 -2,42 -3,58z"/>
    <path class="fil5 str3" d="M316 118l0 37c0,2 -1,4 -3,4l-167 0c-2,0 -4,-2 -4,-4l0 -28c0,0 6,-34 15,-34 10,0 19,51 33,51 14,0 24,-33 40,-33 17,0 24,11 47,12 23,1 18,-5 39,-5z"/>
    <circle class="fil0 str4" cx="307" cy="82" r="3"/>
    <line class="fil6 str5" x1="159" y1="64" x2="159" y2= "158" />
    <line class="fil6 str5" x1="193" y1="66" x2="193" y2= "158" />
    <line class="fil6 str5" x1="230" y1="68" x2="230" y2= "159" />
    <line class="fil6 str5" x1="271" y1="66" x2="271" y2= "158" />
    <circle class="fil0 str6" cx="157" cy="94" r="3"/>
    <circle class="fil0 str4" cx="159" cy="82" r="3"/>
    <circle class="fil0 str6" cx="190" cy="144" r="3"/>
    <circle class="fil0 str4" cx="193" cy="109" r="3"/>
    <circle class="fil0 str6" cx="230" cy="111" r="3"/>
    <circle class="fil0 str4" cx="229" cy="82" r="3"/>
    <circle class="fil0 str6" cx="279" cy="123" r="3"/>
    <circle class="fil0 str4" cx="271" cy="109" r="3"/>
    <rect class="fil0 str0" x="232" y="128" width="174" height="111" rx="2" ry="2"/>
    <rect class="fil3" x="231" y="128" width="174.001" height="13.8981" rx="2" ry="0"/>
    <g>
     <circle class="fil0" cx="398" cy="135" r="3"/>
     <circle class="fil0" cx="387" cy="135" r="3"/>
     <circle class="fil0" cx="375" cy="135" r="3"/>
    </g>
    <rect class="fil5" x="238" y="147" width="162.001" height="41.0009" rx="2" ry="2"/>
    <rect class="fil4" x="238" y="192" width="162.001" height="41.5005" rx="2" ry="2"/>
    <path class="fil6 str3" d="M398 181c-129,1 -15,-29 -160,-28"/>
    <circle class="fil0 str6" cx="238" cy="153" r="3"/>
    <circle class="fil0 str6" cx="398" cy="181" r="3"/>
    <path class="fil6 str2" d="M238 200c114,0 75,-6 162,28"/>
    <circle class="fil0 str4" cx="238" cy="200" r="3"/>
    <circle class="fil0 str4" cx="399" cy="227" r="3"/>
    <line class="fil6 str5" x1="326" y1="145" x2="326" y2= "237" />
    <circle class="fil0 str6" cx="326" cy="169" r="3"/>
    <circle class="fil0 str4" cx="326" cy="201" r="3"/>
   </g>
   <path class="fil7" d="M12 0l416 0c7,0 12,5 12,12l0 263c0,6 -5,12 -12,12l-416 0c-7,0 -12,-6 -12,-12l0 -263c0,-7 5,-12 12,-12zm19 13l378 0c6,0 11,5 11,11l0 239c0,6 -5,11 -11,11l-378 0c-6,0 -11,-5 -11,-11l0 -239c0,-6 5,-11 11,-11z"/>
   <rect class="fil7" y="302" width="440.001" height="32.2206" rx="10" ry="10"/>
   <g>
    <circle class="fil0" cx="408" cy="318" r="6"/>
    <circle class="fil0" cx="385" cy="318" r="6"/>
    <circle class="fil0" cx="362" cy="318" r="6"/>
   </g>
   <rect class="fil7" x="193" y="290" width="53.5006" height="7.75042"/>
  </g>
 </g>
</svg>
